<?xml version="1.0" standalone="no"?><!DOCTYPE svg PUBLIC "-//W3C//DTD SVG 1.1//EN" "http://www.w3.org/Graphics/SVG/1.1/DTD/svg11.dtd"><svg t="1533121906021" class="icon" style="" viewBox="0 0 1024 1024" version="1.1" xmlns="http://www.w3.org/2000/svg" p-id="1106" xmlns:xlink="http://www.w3.org/1999/xlink" width="32" height="32"><defs><style type="text/css"></style></defs><path d="M695.869704 358.267687l0 52.753481-30.375821 0L208.449519 411.021168c-2.080382 0-3.76679 1.686409-3.76679 3.76679l0 53.865815c0 2.080382 1.686409 3.76679 3.76679 3.76679l508.201487 0 0-0.448208 102.015442 0L702.299137 355.605044C699.927113 353.231997 695.869704 354.912265 695.869704 358.267687z" p-id="1107"></path><path d="M814.900681 552.585347l-491.186975 0-16.694217 0-0.005117 0-102.33062 0L321.05004 668.952658c2.373047 2.373047 6.429433 0.691755 6.429433-2.663666l0-52.305273 30.696116 0 456.725092 0c2.080382 0 3.76679-1.686409 3.76679-3.76679l0-53.865815C818.666448 554.271756 816.98004 552.585347 814.900681 552.585347z" p-id="1108"></path><path d="M511.951905 61.660338c-260.050758 0-468.606701 220.461087-448.971501 484.678748 15.694447 211.18277 203.402573 398.87657 414.586366 414.551574 264.205381 19.61064 484.640885-188.940187 484.640885-448.976618C962.208679 263.246543 760.624521 61.660338 511.951905 61.660338zM503.150448 900.417357c-210.495108-4.547573-380.332215-177.191608-380.332215-388.762211 0-214.417441 174.437891-388.858402 388.851239-388.858402 211.562417 0 384.207475 169.82585 388.768351 380.313795C905.247362 725.063607 725.103516 905.21257 503.150448 900.417357z" p-id="1109"></path></svg>