<?xml version="1.0" standalone="no"?><!DOCTYPE svg PUBLIC "-//W3C//DTD SVG 1.1//EN"
	"http://www.w3.org/Graphics/SVG/1.1/DTD/svg11.dtd">
<svg t="1533121694537" class="icon" style="" viewBox="0 0 1024 1024" version="1.1" xmlns="http://www.w3.org/2000/svg"
	 p-id="975"
	 width="150" height="150">
	<defs>
		<style type="text/css"></style>
	</defs>
	<path
		d="M512 81.92C274.432 81.92 81.92 274.432 81.92 512s192.512 430.08 430.08 430.08 430.08-192.512 430.08-430.08S749.568 81.92 512 81.92z"
		fill="#FF6F08" p-id="976"></path>
	<path
		d="M512 983.04C251.904 983.04 40.96 772.096 40.96 512S251.904 40.96 512 40.96s471.04 210.944 471.04 471.04-210.944 471.04-471.04 471.04z m0-901.12C274.432 81.92 81.92 274.432 81.92 512s192.512 430.08 430.08 430.08 430.08-192.512 430.08-430.08S749.568 81.92 512 81.92z"
		fill="#13173C" p-id="977"></path>
	<path
		d="M512 143.36C309.248 143.36 143.36 309.248 143.36 512s165.888 368.64 368.64 368.64 368.64-165.888 368.64-368.64S714.752 143.36 512 143.36z"
		fill="#FF8936" p-id="978"></path>
	<path
		d="M813.056 319.488c-6.144 0-12.288-2.048-16.384-8.192-14.336-20.48-30.72-38.912-49.152-55.296-8.192-8.192-8.192-20.48-2.048-28.672 8.192-8.192 20.48-8.192 28.672-2.048 20.48 18.432 38.912 38.912 55.296 61.44 6.144 10.24 4.096 22.528-4.096 28.672-4.096 2.048-8.192 4.096-12.288 4.096z m-112.64-104.448c-4.096 0-8.192 0-10.24-2.048C636.928 180.224 575.488 163.84 512 163.84c-12.288 0-20.48-8.192-20.48-20.48s8.192-20.48 20.48-20.48c69.632 0 139.264 18.432 198.656 55.296 10.24 6.144 12.288 18.432 6.144 28.672-2.048 6.144-8.192 8.192-16.384 8.192z"
		fill="#FFEBDD" p-id="979"></path>
	<path
		d="M491.52 296.96c0-8.192 2.048-16.384 8.192-22.528 6.144-6.144 12.288-10.24 20.48-10.24s16.384 4.096 22.528 10.24c8.192 6.144 10.24 14.336 10.24 22.528v184.32c0 8.192-2.048 16.384-8.192 22.528-6.144 6.144-12.288 8.192-22.528 8.192-8.192 0-16.384-2.048-20.48-8.192-6.144-6.144-8.192-12.288-8.192-22.528v-184.32H491.52z"
		fill="#FFD4B5" p-id="980"></path>
	<path
		d="M739.328 614.4c-12.288 28.672-28.672 53.248-51.2 73.728-20.48 20.48-47.104 36.864-73.728 49.152-28.672 12.288-59.392 18.432-92.16 18.432s-63.488-6.144-92.16-18.432c-28.672-12.288-53.248-28.672-75.776-49.152-20.48-20.48-38.912-45.056-51.2-73.728-10.24-26.624-16.384-57.344-16.384-90.112 0-18.432 2.048-36.864 6.144-53.248 4.096-18.432 10.24-34.816 18.432-51.2s18.432-30.72 30.72-45.056c12.288-14.336 24.576-26.624 40.96-36.864 6.144-6.144 14.336-8.192 24.576-6.144 8.192 2.048 16.384 6.144 22.528 12.288 4.096 8.192 6.144 16.384 4.096 24.576 0 8.192-4.096 16.384-12.288 22.528-22.528 16.384-38.912 34.816-51.2 59.392-12.288 22.528-18.432 49.152-18.432 75.776 0 22.528 4.096 45.056 12.288 65.536 8.192 20.48 20.48 38.912 36.864 53.248 14.336 14.336 32.768 26.624 53.248 36.864 20.48 8.192 43.008 14.336 65.536 14.336s45.056-4.096 65.536-14.336c20.48-8.192 38.912-20.48 53.248-36.864 14.336-14.336 26.624-32.768 36.864-53.248 8.192-20.48 14.336-40.96 14.336-65.536 0-26.624-6.144-53.248-18.432-77.824-12.288-24.576-30.72-43.008-53.248-59.392-8.192-6.144-12.288-12.288-14.336-20.48-2.048-8.192 0-16.384 6.144-24.576 6.144-8.192 12.288-12.288 22.528-12.288 8.192-2.048 18.432 0 24.576 6.144 16.384 10.24 30.72 24.576 43.008 36.864 12.288 14.336 22.528 28.672 30.72 45.056 8.192 16.384 16.384 32.768 20.48 51.2 4.096 18.432 6.144 36.864 6.144 55.296 0 30.72-6.144 61.44-18.432 88.064z"
		fill="#FFD4B5" p-id="981"></path>
	<path
		d="M471.04 276.48c0-8.192 2.048-16.384 8.192-22.528 6.144-6.144 12.288-10.24 20.48-10.24s16.384 4.096 22.528 10.24c8.192 6.144 10.24 14.336 10.24 22.528v184.32c0 8.192-2.048 16.384-8.192 22.528-6.144 6.144-12.288 8.192-22.528 8.192-8.192 0-16.384-2.048-20.48-8.192-6.144-6.144-8.192-12.288-8.192-22.528v-184.32H471.04z"
		fill="#FFFFFF" p-id="982"></path>
	<path
		d="M718.848 593.92c-12.288 28.672-28.672 53.248-51.2 73.728-20.48 20.48-47.104 36.864-73.728 49.152-28.672 12.288-59.392 18.432-92.16 18.432s-63.488-6.144-92.16-18.432c-28.672-12.288-53.248-28.672-75.776-49.152-20.48-20.48-38.912-45.056-51.2-73.728-10.24-26.624-16.384-57.344-16.384-90.112 0-18.432 2.048-36.864 6.144-53.248 4.096-18.432 10.24-34.816 18.432-51.2s18.432-30.72 30.72-45.056c12.288-14.336 24.576-26.624 40.96-36.864 6.144-6.144 14.336-8.192 24.576-6.144 8.192 2.048 16.384 6.144 22.528 12.288 4.096 8.192 6.144 16.384 4.096 24.576 0 8.192-4.096 16.384-12.288 22.528-22.528 16.384-38.912 34.816-51.2 59.392-12.288 22.528-18.432 49.152-18.432 75.776 0 22.528 4.096 45.056 12.288 65.536 8.192 20.48 20.48 38.912 36.864 53.248 14.336 14.336 32.768 26.624 53.248 36.864 20.48 8.192 43.008 14.336 65.536 14.336s45.056-4.096 65.536-14.336c20.48-8.192 38.912-20.48 53.248-36.864 14.336-14.336 26.624-32.768 36.864-53.248 8.192-20.48 14.336-40.96 14.336-65.536 0-26.624-6.144-53.248-18.432-77.824-12.288-24.576-30.72-43.008-53.248-59.392-8.192-6.144-12.288-12.288-14.336-20.48-2.048-8.192 0-16.384 6.144-24.576 6.144-8.192 12.288-12.288 22.528-12.288 8.192-2.048 18.432 0 24.576 6.144 16.384 10.24 30.72 24.576 43.008 36.864 12.288 14.336 22.528 28.672 30.72 45.056 8.192 16.384 16.384 32.768 20.48 51.2 4.096 18.432 6.144 36.864 6.144 55.296 0 30.72-6.144 61.44-18.432 88.064z"
		fill="#FFFFFF" p-id="983"></path>
</svg>
