<?xml version="1.0" standalone="no"?><!DOCTYPE svg PUBLIC "-//W3C//DTD SVG 1.1//EN" "http://www.w3.org/Graphics/SVG/1.1/DTD/svg11.dtd"><svg t="1533122367075" class="icon" style="" viewBox="0 0 1588 1024" version="1.1" xmlns="http://www.w3.org/2000/svg" p-id="5083" xmlns:xlink="http://www.w3.org/1999/xlink" width="49.625" height="32"><defs><style type="text/css"></style></defs><path d="M0 0h1588.476454v1024H0z" fill="#DE2910" p-id="5084"></path><path d="M374.993906 188.347922l60.702493 187.78061h197.992244l-159.982272 113.462604 60.702493 188.347922-159.982271-113.462604-159.982272 113.462604 60.702493-188.347922-159.982271-113.462604h197.992244z m515.687534-98.145152l-3.971191 65.240997 60.702493 23.827147-63.539058 16.452078-3.971191 65.240997-35.173407-56.731302-62.971745 16.452078 41.981163-49.923546-35.173407-56.731302 60.702493 23.827147z m221.819391 210.47313l-29.500277 56.731302 46.519668 46.519668-64.106372-10.778948-30.06759 56.731302-10.211634-64.673684-64.106371-9.644321 56.731302-29.500277-10.211635-64.106371 45.952355 46.519667z m-66.942936 264.367867l19.855955 61.837119h65.240998l-52.760111 38.009973 19.855956 61.837119-52.760111-38.577285-52.760111 38.009972 20.423269-61.837119-52.760111-38.009973h65.240997z m-156.011081 198.559557l-3.971191 64.673684 60.702493 23.827147-62.971745 16.452078-3.971191 64.673684-35.173407-56.731302-63.539058 16.452078 41.41385-49.923546-35.173407-56.731302 60.702493 23.827147z m0 0" fill="#FFDE00" p-id="5085"></path></svg>